HIERARCHY
ROOT Hips
{
	OFFSET 0.000000 0.000000 0.000000
	CHANNELS 6 Xposition Yposition Zposition Zrotation Yrotation Xrotation 
	JOINT LHipJoint
	{
		OFFSET 0.000000 0.000000 0.000000
		CHANNELS 3 Zrotation Yrotation Xrotation
		JOINT LeftUpLeg
		{
			OFFSET 1.363060 -1.794630 0.839290
			CHANNELS 3 Zrotation Yrotation Xrotation
			JOINT LeftLeg
			{
				OFFSET 2.448110 -6.726130 0.000000
				CHANNELS 3 Zrotation Yrotation Xrotation
				JOINT LeftFoot
				{
					OFFSET 2.562200 -7.039590 0.000000
					CHANNELS 3 Zrotation Yrotation Xrotation
					JOINT LeftToeBase
					{
						OFFSET 0.157640 -0.433110 2.322550
						CHANNELS 3 Zrotation Yrotation Xrotation
						End Site
						{
							OFFSET 0.000000 0.000000 0.000000
						}
					}
				}
			}
		}
	}
	JOINT RHipJoint
	{
		OFFSET 0.000000 0.000000 0.000000
		CHANNELS 3 Zrotation Yrotation Xrotation
		JOINT RightUpLeg
		{
			OFFSET -1.305520 -1.794630 0.839290
			CHANNELS 3 Zrotation Yrotation Xrotation
			JOINT RightLeg
			{
				OFFSET -2.542530 -6.985550 0.000000
				CHANNELS 3 Zrotation Yrotation Xrotation
				JOINT RightFoot
				{
					OFFSET -2.568260 -7.056230 0.000000
					CHANNELS 3 Zrotation Yrotation Xrotation
					JOINT RightToeBase
					{
						OFFSET -0.164730 -0.452590 2.363150
						CHANNELS 3 Zrotation Yrotation Xrotation
						End Site
						{
							OFFSET 0.000000 0.000000 0.000000
						}
					}
				}
			}
		}
	}
	JOINT LowerBack
	{
		OFFSET 0.000000 0.000000 0.000000
		CHANNELS 3 Zrotation Yrotation Xrotation
		JOINT Spine
		{
			OFFSET 0.028270 2.035590 -0.193380
			CHANNELS 3 Zrotation Yrotation Xrotation
			JOINT Spine1
			{
				OFFSET 0.056720 2.048850 -0.042750
				CHANNELS 3 Zrotation Yrotation Xrotation
				JOINT Neck
				{
					OFFSET 0.000000 0.000000 0.000000
					CHANNELS 3 Zrotation Yrotation Xrotation
					JOINT Neck1
					{
						OFFSET -0.054170 1.746240 0.172020
						CHANNELS 3 Zrotation Yrotation Xrotation
						JOINT Head
						{
							OFFSET 0.104070 1.761360 -0.123970
							CHANNELS 3 Zrotation Yrotation Xrotation
							End Site
							{
								OFFSET 0.000000 0.000000 0.000000
							}
						}
					}
				}
				JOINT LeftShoulder
				{
					OFFSET 0.000000 0.000000 0.000000
					CHANNELS 3 Zrotation Yrotation Xrotation
					JOINT LeftArm
					{
						OFFSET 3.362410 1.200890 -0.311210
						CHANNELS 3 Zrotation Yrotation Xrotation
						JOINT LeftForeArm
						{
							OFFSET 4.983000 -0.000000 -0.000000
							CHANNELS 3 Zrotation Yrotation Xrotation
							JOINT LeftHand
							{
								OFFSET 3.483560 -0.000000 -0.000000
								CHANNELS 3 Zrotation Yrotation Xrotation
								JOINT LeftFingerBase
								{
									OFFSET 0.000000 0.000000 0.000000
									CHANNELS 3 Zrotation Yrotation Xrotation
									JOINT LeftHandIndex1
									{
										OFFSET 0.715260 -0.000000 -0.000000
										CHANNELS 3 Zrotation Yrotation Xrotation
										End Site
										{
											OFFSET 0.000000 0.000000 0.000000
										}
									}
								}
								JOINT LThumb
								{
									OFFSET 0.000000 0.000000 0.000000
									CHANNELS 3 Zrotation Yrotation Xrotation
									End Site
									{
										OFFSET 0.000000 0.000000 0.000000
									}
								}
							}
						}
					}
				}
				JOINT RightShoulder
				{
					OFFSET 0.000000 0.000000 0.000000
					CHANNELS 3 Zrotation Yrotation Xrotation
					JOINT RightArm
					{
						OFFSET -3.136600 1.374050 -0.404650
						CHANNELS 3 Zrotation Yrotation Xrotation
						JOINT RightForeArm
						{
							OFFSET -5.241900 -0.000000 -0.000000
							CHANNELS 3 Zrotation Yrotation Xrotation
							JOINT RightHand
							{
								OFFSET -3.444170 -0.000000 -0.000000
								CHANNELS 3 Zrotation Yrotation Xrotation
								JOINT RightFingerBase
								{
									OFFSET 0.000000 0.000000 0.000000
									CHANNELS 3 Zrotation Yrotation Xrotation
									JOINT RightHandIndex1
									{
										OFFSET -0.622530 -0.000000 -0.000000
										CHANNELS 3 Zrotation Yrotation Xrotation
										End Site
										{
											OFFSET 0.000000 0.000000 0.000000
										}
									}
								}
								JOINT RThumb
								{
									OFFSET 0.000000 0.000000 0.000000
									CHANNELS 3 Zrotation Yrotation Xrotation
									End Site
									{
										OFFSET 0.000000 0.000000 0.000000
									}
								}
							}
						}
					}
				}
			}
		}
	}
}
MOTION
Frames: 11
Frame Time: 0.008333
2.452157 15.846453 -1.369481 65.960615 -77.829834 -18.823239 -7.357405 0.501870 8.208210 -3.263057 -30.648716 -129.565241 -10.840268 -0.692897 7.138952 -2.041603 -3.973660 9.894588 0.486900 -0.000000 -50.216800 7.969331 3.993908 -4.893397 10.616848 -5.920927 -79.017030 2.445533 -6.139032 54.753223 -2.465171 -4.847751 -21.686247 1.209300 0.000000 -48.028600 -3.516404 -3.097763 4.011781 -1.487031 -2.905782 -2.528248 -5.532899 -2.894041 -1.378737 10.287341 -12.987846 -10.659674 -2.066578 -0.069474 -1.513659 0.000000 0.000000 0.000000 4.149591 5.335966 3.730866 -68.609308 19.018557 9.199545 -0.530705 -77.790733 -0.007564 1.832835 4.568795 0.073220 -0.049643 0.158233 -0.000000 0.000000 0.000000 0.000000 0.000000 0.000000 0.000000 9.214735 -7.905767 0.937338 67.873754 3.372218 17.049669 179.485578 76.370586 179.929807 -9.884864 3.985361 -0.397645 0.233031 -0.520376 0.000000 0.000000 0.000000 0.000000 0.000000 0.000000 0.000000 
2.462907 15.819719 -1.377685 66.004162 -77.616994 -18.664076 -7.294638 0.327959 8.223413 -2.385018 -29.850372 -129.140836 -10.430424 -0.641650 7.261215 -2.073828 -3.975968 10.884487 0.427900 0.000000 -50.028500 7.969258 4.143192 -4.899488 10.149684 -5.790483 -79.404118 2.326664 -6.169505 55.306434 -2.580664 -5.299781 -21.968952 1.306700 -0.000000 -47.552200 -3.557129 -3.127931 4.081961 -1.503085 -2.937880 -2.521230 -5.549155 -2.926421 -1.445426 10.236739 -12.820061 -10.531290 -2.125001 -0.075854 -1.485759 0.000000 0.000000 0.000000 3.976792 4.956235 3.733164 -68.496965 18.586249 9.488872 -0.528717 -77.864567 -0.007028 1.709926 4.476240 0.066916 -0.046526 0.162187 -0.000000 0.000000 0.000000 0.000000 0.000000 0.000000 0.000000 9.430267 -7.806025 0.967610 67.934150 3.603330 17.066720 179.505498 76.756624 179.928257 -10.107401 3.964344 -0.404557 0.236244 -0.518544 0.000000 0.000000 0.000000 0.000000 0.000000 0.000000 0.000000 
2.471572 15.797214 -1.385730 66.163934 -77.422796 -18.661589 -7.227722 0.175086 8.213436 -1.772880 -29.148786 -128.397139 -10.030280 -0.610700 7.273157 -2.093793 -3.922066 12.002522 0.383001 -0.000000 -49.471300 7.974049 4.280120 -4.884130 9.674284 -5.648062 -79.711935 2.210755 -6.183176 55.776227 -2.693572 -5.747279 -22.215829 1.401300 0.000000 -47.110800 -3.621601 -3.143510 4.142455 -1.524136 -2.955023 -2.515320 -5.560132 -2.944068 -1.507393 10.192359 -12.677085 -10.420797 -2.179694 -0.081661 -1.461976 0.000000 0.000000 0.000000 3.849820 4.600218 3.731606 -68.439416 18.149763 9.717848 -0.525839 -77.941870 -0.006552 1.609809 4.336561 0.060915 -0.043718 0.166816 -0.000000 0.000000 0.000000 0.000000 0.000000 0.000000 0.000000 9.642161 -7.718284 1.001045 68.009997 3.817800 17.089157 179.525930 77.167548 179.926736 -10.325861 3.939997 -0.410867 0.239240 -0.516637 0.000000 0.000000 0.000000 0.000000 0.000000 0.000000 0.000000 
2.477883 15.779062 -1.393143 66.441322 -77.260416 -18.805233 -7.158422 0.045021 8.183591 -1.409220 -28.541575 -127.358674 -9.650558 -0.614227 7.145636 -2.082771 -3.750888 13.138438 0.386200 0.000000 -48.719600 7.983179 4.399243 -4.842939 9.203533 -5.476529 -79.952053 2.099794 -6.179339 56.155690 -2.802792 -6.182332 -22.426409 1.491300 0.000000 -46.651300 -3.703495 -3.142946 4.181914 -1.548592 -2.955825 -2.513560 -5.565012 -2.945780 -1.565430 10.150892 -12.562779 -10.328465 -2.229048 -0.086797 -1.442099 0.000000 0.000000 0.000000 3.767840 4.263357 3.724548 -68.448779 17.742674 9.864985 -0.520681 -78.036785 -0.006259 1.563003 4.160925 0.056617 -0.041503 0.171986 -0.000000 0.000000 0.000000 0.000000 0.000000 0.000000 0.000000 9.839305 -7.645217 1.038451 68.102298 4.018506 17.125075 179.546199 77.600208 179.925311 -10.533084 3.913555 -0.416475 0.241978 -0.514723 0.000000 0.000000 0.000000 0.000000 0.000000 0.000000 0.000000 
2.481575 15.765295 -1.398828 66.758568 -77.142044 -19.017960 -7.092858 -0.058912 8.134545 -1.292509 -28.041418 -126.081697 -9.300357 -0.637007 6.952826 -2.036409 -3.452170 14.189941 0.452500 0.000000 -47.986100 7.994243 4.489321 -4.777390 8.779977 -5.280127 -80.132598 2.000194 -6.161435 56.437861 -2.902234 -6.579364 -22.588882 1.570200 -0.000000 -46.250400 -3.776761 -3.128244 4.194357 -1.569709 -2.942601 -2.517412 -5.562106 -2.933948 -1.617910 10.104832 -12.472280 -10.254571 -2.271687 -0.091185 -1.425834 0.000000 0.000000 0.000000 3.722088 3.964334 3.711170 -68.530327 17.376956 9.933606 -0.512623 -78.154772 -0.006284 1.598717 3.965781 0.054923 -0.040279 0.177544 -0.000000 0.000000 0.000000 0.000000 0.000000 0.000000 0.000000 10.004591 -7.582359 1.077122 68.206202 4.204331 17.180534 179.566026 78.047544 179.924055 -10.720111 3.887408 -0.421180 0.244319 -0.512808 0.000000 0.000000 0.000000 0.000000 0.000000 0.000000 0.000000 
2.482379 15.755761 -1.402072 67.081649 -77.076438 -19.258916 -7.035596 -0.136724 8.071044 -1.392376 -27.632522 -124.622681 -8.978634 -0.667372 6.756847 -1.950942 -3.008533 15.085326 0.597901 0.000000 -47.429000 8.006155 4.544903 -4.688390 8.428042 -5.059616 -80.264396 1.916004 -6.132049 56.620491 -2.988198 -6.921009 -22.700322 1.634300 0.000000 -45.918900 -3.825702 -3.101444 4.172607 -1.583493 -2.917579 -2.528764 -5.551191 -2.910865 -1.664394 10.050596 -12.403717 -10.198916 -2.306701 -0.094782 -1.412880 0.000000 0.000000 0.000000 3.703185 3.710234 3.690975 -68.681665 17.072404 9.925823 -0.500845 -78.310494 -0.006714 1.733153 3.767729 0.056233 -0.040247 0.183292 -0.000000 0.000000 0.000000 0.000000 0.000000 0.000000 0.000000 10.127964 -7.528476 1.116003 68.318225 4.377056 17.262138 179.584729 78.501276 179.923043 -10.877815 3.863807 -0.424882 0.246192 -0.510939 0.000000 0.000000 0.000000 0.000000 0.000000 0.000000 0.000000 
2.480412 15.750370 -1.402622 67.410694 -77.068944 -19.527251 -6.989608 -0.188701 7.993447 -1.681676 -27.289585 -123.031172 -8.680229 -0.689914 6.632247 -1.827396 -2.423710 15.776409 0.825200 0.000000 -47.126700 8.018985 4.565760 -4.578068 8.156653 -4.816974 -80.351017 1.849159 -6.092884 56.705066 -3.058167 -7.195214 -22.763063 1.681200 0.000000 -45.644899 -3.846211 -3.065046 4.117946 -1.588782 -2.883150 -2.547133 -5.532677 -2.878803 -1.703928 9.988838 -12.357091 -10.162549 -2.333409 -0.097520 -1.403587 0.000000 0.000000 0.000000 3.706650 3.510291 3.664164 -68.894207 16.837745 9.852912 -0.484960 -78.516792 -0.007588 1.970135 3.579701 0.060246 -0.041480 0.189060 -0.000000 0.000000 0.000000 0.000000 0.000000 0.000000 0.000000 10.205559 -7.484248 1.154187 68.437778 4.544042 17.375942 179.601693 78.952689 179.922332 -10.998547 3.846449 -0.427681 0.247546 -0.509219 0.000000 0.000000 0.000000 0.000000 0.000000 0.000000 0.000000 
2.475713 15.748952 -1.400172 67.727721 -77.121700 -19.806907 -6.957653 -0.216207 7.901709 -2.129118 -26.986999 -121.357558 -8.397640 -0.686113 6.664166 -1.672128 -1.728321 16.241009 1.119600 -0.000000 -47.075200 8.032469 4.551521 -4.450681 7.978718 -4.562018 -80.393828 1.802281 -6.046802 56.694266 -3.108939 -7.388601 -22.777146 1.708400 0.000000 -45.451500 -3.830987 -3.022246 4.033735 -1.583749 -2.842530 -2.571592 -5.507411 -2.840846 -1.735580 9.920339 -12.330047 -10.145645 -2.351673 -0.099383 -1.398067 0.000000 0.000000 0.000000 3.724838 3.373864 3.631591 -69.152900 16.675214 9.734208 -0.465058 -78.784269 -0.008899 2.302480 3.413423 0.066663 -0.043960 0.194674 -0.000000 0.000000 0.000000 0.000000 0.000000 0.000000 0.000000 10.235502 -7.448479 1.190369 68.561698 4.708947 17.524552 179.616424 79.391801 179.921974 -11.075557 3.837976 -0.429677 0.248328 -0.507707 0.000000 0.000000 0.000000 0.000000 0.000000 0.000000 0.000000 
2.468346 15.751203 -1.394430 68.001987 -77.233975 -20.066598 -6.941117 -0.223871 7.799428 -2.677777 -26.691891 -119.648233 -8.118265 -0.644344 6.910240 -1.490856 -0.951295 16.489661 1.462400 0.000001 -47.219600 8.045948 4.502756 -4.310892 7.904896 -4.304750 -80.396488 1.777555 -5.996852 56.592948 -3.138446 -7.492356 -22.745097 1.715000 -0.000000 -45.349200 -3.770861 -2.976489 3.920765 -1.566355 -2.799382 -2.602150 -5.477334 -2.800596 -1.759650 9.846414 -12.318827 -10.146807 -2.362029 -0.100444 -1.395911 0.000000 0.000000 0.000000 3.744868 3.302210 3.594542 -69.438314 16.591355 9.588223 -0.441381 -79.126627 -0.010594 2.709770 3.276629 0.074882 -0.047505 0.199969 -0.000000 0.000000 0.000000 0.000000 0.000000 0.000000 0.000000 10.218640 -7.418895 1.223637 68.685972 4.868828 17.707301 179.628448 79.806481 179.922002 -11.104558 3.840929 -0.430971 0.248527 -0.506461 0.000000 0.000000 0.000000 0.000000 0.000000 0.000000 0.000000 
2.458412 15.756796 -1.385599 68.237422 -77.402062 -20.310395 -6.939307 -0.216245 7.686416 -3.274226 -26.371858 -117.938127 -7.830145 -0.556149 7.413414 -1.290612 -0.130513 16.548655 1.828700 0.000000 -47.461400 8.059963 4.424051 -4.162850 7.930035 -4.051810 -80.355827 1.774469 -5.944333 56.408580 -3.147013 -7.508271 -22.673209 1.702299 -0.000000 -45.328300 -3.668557 -2.930181 3.785969 -1.537582 -2.756116 -2.637060 -5.444602 -2.760302 -1.776428 9.771789 -12.321756 -10.165126 -2.365108 -0.100749 -1.397132 0.000000 0.000000 0.000000 3.761024 3.294646 3.554606 -69.729916 16.582911 9.435890 -0.414601 -79.550375 -0.012551 3.163094 3.172009 0.084103 -0.051824 0.204835 -0.000000 0.000000 0.000000 0.000000 0.000000 0.000000 0.000000 10.161070 -7.394770 1.253541 68.809465 5.023437 17.920860 179.637382 80.183912 179.922415 -11.084232 3.856828 -0.431660 0.248160 -0.505562 0.000000 0.000000 0.000000 0.000000 0.000000 0.000000 0.000000 
2.446512 15.765598 -1.374179 68.449049 -77.620341 -20.563507 -6.949566 -0.197912 7.555910 -3.884432 -26.001866 -116.244365 -7.523795 -0.413911 8.211267 -1.081028 0.683293 16.452774 2.186399 0.000000 -47.683900 8.075377 4.322223 -4.011192 8.041321 -3.810055 -80.261909 1.791018 -5.889619 56.149644 -3.135781 -7.442890 -22.567808 1.673001 -0.000000 -45.375100 -3.532989 -2.885118 3.644251 -1.499907 -2.714319 -2.672372 -5.411206 -2.721267 -1.785584 9.702684 -12.339275 -10.200445 -2.361543 -0.100318 -1.402106 0.000000 0.000000 0.000000 3.775318 3.352272 3.513283 -70.009198 16.632209 9.302377 -0.385802 -80.051010 -0.014634 3.628792 3.098215 0.093826 -0.056568 0.209225 -0.000000 0.000000 0.000000 0.000000 0.000000 0.000000 0.000000 10.071473 -7.377223 1.279532 68.933374 5.176115 18.160490 179.643142 80.514857 179.923185 -11.016847 3.886310 -0.431847 0.247256 -0.505075 0.000000 0.000000 0.000000 0.000000 0.000000 0.000000 0.000000 
